<?xml version="1.0" encoding="utf-8"?>
<!-- Generator: Adobe Illustrator 14.0.0, SVG Export Plug-In . SVG Version: 6.00 Build 43363)  -->
<!DOCTYPE svg PUBLIC "-//W3C//DTD SVG 1.0//EN" "http://www.w3.org/TR/2001/REC-SVG-20010904/DTD/svg10.dtd">
<svg version="1.0" id="Layer_1" xmlns="http://www.w3.org/2000/svg" xmlns:xlink="http://www.w3.org/1999/xlink" x="0px" y="0px"
	 width="93.488px" height="100px" viewBox="0 0 93.488 100" enable-background="new 0 0 93.488 100" xml:space="preserve">
<path d="M44.56,2.138C24.35,2.853,7.769,16.061,0.575,36.079c-1.176,3.272-0.356,5.053,0.734,3.773
	c3.034-3.562,7.193-5.81,11.822-5.81c5.514,0,10.399,3.157,13.417,8.019c1.573,2.296,2.085,2.444,3.519,0.057
	c3.65-6.064,8.166-7.974,14.494-8.084c0,21.249,0.011,47.21,0.011,51.417c0,5.166-3.565,10.258-7.964,10.258
	c-4.398,0-7.966-3.568-7.966-8.733h-4.417c0,8.031,5.543,13.024,12.383,13.024s12.387-6.517,12.387-14.549
	c0-5.277-0.033-30.244-0.05-51.419c6.098,0.09,10.69,1.795,14.475,8.086c1.437,2.387,1.945,2.239,3.519-0.057
	c3.02-4.861,7.906-8.019,13.42-8.019c4.625,0,8.788,2.247,11.821,5.81c1.091,1.28,1.91-0.501,0.734-3.773
	C85.723,16.075,69.149,2.872,48.955,2.14c0-3.491,0,0.216,0-2.14h-4.406L44.56,2.138z"/>
<path d="M45.18,14.363"/>
</svg>
